<?xml version="1.0" encoding="UTF-8"?><svg id="Calque_1" xmlns="http://www.w3.org/2000/svg" viewBox="0 0 198.43 198.43"><defs><style>.cls-1{fill:#f4d47a;}.cls-2{fill:#e0a82a;}.cls-3{fill:#a1c47f;}.cls-4,.cls-5{fill:#87a964;}.cls-5{fill-rule:evenodd;}</style></defs><g><rect class="cls-4" x="73.49" y="93.06" width="51.44" height="24.14"/><rect class="cls-3" x="76.48" y="95.98" width="45.46" height="18.31"/><path class="cls-5" d="m82.18,95.98c0,3.15-2.55,5.69-5.69,5.69v-5.69h5.69Z"/><path class="cls-5" d="m116.25,95.98c0,3.15,2.55,5.69,5.69,5.69v-5.69h-5.69Z"/><path class="cls-5" d="m82.18,114.75c0-3.15-2.55-5.69-5.69-5.69v5.69h5.69Z"/><path class="cls-5" d="m116.25,114.75c0-3.15,2.55-5.69,5.69-5.69v5.69h-5.69Z"/><circle class="cls-4" cx="99.21" cy="105.13" r="6.71" transform="translate(-6.12 204.13) rotate(-89.88)"/></g><rect class="cls-4" x="73.49" y="81.22" width="51.44" height="11.54"/><g><rect class="cls-3" x="73.49" y="92.22" width="51.44" height="1.1"/><rect class="cls-3" x="73.49" y="89.25" width="51.44" height="1.1"/><rect class="cls-3" x="73.49" y="86.28" width="51.44" height="1.1"/><rect class="cls-3" x="73.49" y="83.31" width="51.44" height="1.1"/></g><rect class="cls-1" x="96.83" y="87.65" width="4.76" height="29.55"/><rect class="cls-2" x="96.83" y="81.22" width="4.76" height="11.84"/></svg>